<?xml version="1.0" encoding="UTF-8"?>
<svg id="Layer_1" data-name="Layer 1" xmlns="http://www.w3.org/2000/svg" viewBox="0 0 374.65 223.35">
  <defs>
    <style>
      .cls-1 {
        fill: #0172bb;
      }

      .cls-2 {
        fill: #fbae17;
      }

      .cls-3 {
        fill: #fef10c;
      }

      .cls-4 {
        fill: #0072bb;
      }

      .cls-5 {
        fill: #fef100;
      }
    </style>
  </defs>
  <path class="cls-5" d="M13.68.39c22.19.25,44.83.33,67.92.24,93.65-.37,186.69-.37,279.14,0,7.59-1.41,14.41,6.64,13.8,14.01l-.06,195.98c-.14,6.76-6.09,12.7-12.78,12.73H12.48c-6.57-.13-12.29-5.65-12.47-12.23V13.33c.02-.24-.03-.49,0-.72C-.06,5.83,6.99-.4,13.68.39Z"/>
  <path class="cls-4" d="M200.27,63.69l.97,18.21c-7.49-4.07-16.4-6.75-25.03-5.96s-15.68,8.9-7.95,16.52c13.14,12.95,37.15,13.69,42.46,34.99,4.6,18.47-5.5,34.01-23.15,39.44s-35.47,2.19-51.08-5.28l-1.92-17.86c5.92,2.85,11.96,5.54,18.37,7.17,8.47,2.16,24.93,4.69,29.33-5.41,2.88-6.6-2.15-11.45-7.09-14.9-8.78-6.15-19.45-8.77-27.77-15.87-19.07-16.27-15.1-43.29,8.93-51.72,7.86-2.76,16.86-3.03,25.12-2.46,6.37.44,12.64,1.61,18.82,3.12Z"/>
  <path class="cls-2" d="M53.5,78.3c-3.9,2.26-7.78,4.6-11.63,6.95-.18.04-.15-.22-.11-.35.26-1.03,1.23-2.99,1.71-4.05,16.62-36.61,58.74-53.73,96.49-39.24,5.24-2.71,10.28-5.86,15.37-8.86,3.59,6.18-1.53,10.56-6.84,12.82,4.65,2.98,9.52,5.76,13.43,9.71-3.16.37-6.14,1.34-9.11,2.4l-1.27-.39c-3.39-2.59-7.13-4.67-10.99-6.46l-15.01,8.75,9.9,10.03-.14.54c-1.65,2.31-2.85,4.52-3.84,7.19l-.69-.28c-4.14-4.53-8.59-8.72-13.35-12.58l-21.62,12.59c5.06,9.2,10.76,18.91,16.31,27.83l16.7-9.61.49.27c.31,2.52,1.1,5.27,1.92,7.67l.05.53c-5.01,2.84-9.9,5.77-14.68,8.79l11.78,20.16-.27.49c-.41.39-.28,1.28-.24,1.8.43,5.39.93,10.8,1.44,16.18-1.52,1.75-3.73,3.12-6,3.6l-43.35,25.13c-3.39-1.25-6.62-3.32-9.65-5.36l6.23-4.91.73-.25c.8.56,1.64,1.02,2.51,1.38l15.57-9c-1.03-1.2-2.16-2.38-3.38-3.52l.17-.6c1.72-1.61,3.6-4.19,5.28-5.99l.64.09c1.49,1.96,3.28,3.78,5.32,5.14,7.32-4.19,14.52-8.47,21.59-12.85l-15.98-27.11c-5.22,2.71-10.26,5.64-15.12,8.77l-.53-.17-45.21,26.13-4.93-9.45c2.08-1.56,4.2-3.1,6.25-4.69l.55.02c.44,1.03.96,1.97,1.56,2.81l19.08-11.14c-1-2.02-1.9-4.04-2.71-6.08,2.18-1.96,4-4.33,6-6.47l.5-.05,3.71,8.16c8.88-5.14,17.62-10.39,26.23-15.74l-16.03-27.65-11.53,6.78-.49-.27-38.98,22.53c-.48.07-.31-.02-.35-.35-.41-3.09.52-7.57,1.1-10.66,2.96-2.54,6.14-4.81,9.22-7.21l.45.4-.8,2.79c3.76-2.02,7.48-4.18,11.18-6.47v-3.53c-.22-.64-.23-1.16-.03-1.57,3.1-2.74,6.02-6.31,8.87-9.35l.34,1.08c-.21.71-.81,8.58-.45,8.38l16.92-10.07-8.85-15.54c-.17-.12-1.57,1.46-1.74,1.71-2.3,3.25-3.56,6.3-5.02,9.89-3.14,1.79-6.23,3.71-9.35,5.51l-.43-.35.75-4.48c-1.65,2.07-3.18,4.3-4.47,6.57l-1.12,1.13Z"/>
  <path class="cls-4" d="M290.22,62.24l-5.64,23.73c-2.08-2.78-5.83-4.54-9.22-5.17-2.81-.52-5.04-.42-7.8-.34-.74.02-4.31-.24-4.46.39v72.84c.4,6.85,1.44,8.63,5.41,13.79.19.24.46.3.36.72h-41.25c1.8-1.97,3.54-4.11,4.5-6.65,1.05-2.81,1.15-5.63,1.5-8.57v-71.92s-.39-.57-.39-.57c-6.76-.69-13.3.26-19.64,2.6-2.26.84-4.38,1.95-6.59,2.88l6.23-23.73h76.99Z"/>
  <path class="cls-4" d="M337.95,62.24c-1.76,1.91-3.55,3.94-4.5,6.41-1.07,2.77-1.38,6.55-1.51,9.52-1.04,24.51.8,49.75.01,74.33.31,1.73.27,3.47.55,5.21.67,4.12,2.56,7.32,5.45,10.26h-41.25c1.36-1.81,2.99-3.44,3.95-5.52,1.29-2.77,1.43-5.77,1.8-8.75-.91-25.4,1.22-51.66.01-76.97-.08-1.58-.28-3.64-.56-5.2-.66-3.71-2.75-6.78-5.45-9.3h41.49Z"/>
  <path class="cls-4" d="M76.28,87.89l12.23-7.19,16.56,28.66-26.8,15.89-.52.03-3.86-8.61c2.57-2.75,5.54-5.65,7.92-8.51.22-.27.58-.39.48-.84l-9.83,5.51c-.21-.17-.41-.35-.58-.56s-.33-.4-.43-.62c-1.68-3.89-3-8.69-3.75-12.86-.04-.24-.02-.5.02-.76s.1-.53.18-.79c2.86-3.05,5.68-6.19,8.39-9.35Z"/>
  <path class="cls-4" d="M97.39,151.67c2.68-2.87,5.31-5.8,8.05-8.62l.35-.97c-3.93,2.21-7.85,4.46-11.75,6.71l-1.01-.51c-1.69-1.92-8.73-10.28-8.86-12.06-.01-.2,0-.4.03-.61,2.93-3.12,6.11-7.25,9.11-10.07,1.69-1.59,6.9-4.23,9.19-5.56s4.36-2.61,6.64-3.69l16.54,28.07-22.24,13.03c-.47.06-1.75-1.11-2.22-1.52-1.3-1.13-2.91-2.77-3.83-4.2Z"/>
  <path class="cls-4" d="M131.45,77.35c-2.12,5.75-2.91,12.11-2.16,18.22l-17.5,10.07-16.79-28.65,22.43-13.06c5.26,3.81,9.68,8.63,14.02,13.42Z"/>
  <path class="cls-4" d="M155.19,126.97l.1.5-18.26,10.63-.79-.1c-2.79-1.48-5.41-3.24-8.15-4.79l-12.25-20.96,15.36-9.01c4.21,12.39,12.86,18.05,23.98,23.73Z"/>
  <path class="cls-4" d="M87.31,152.62c-6.32,3.66-12.6,7.4-18.95,11.03l-.59.09-7.46-7.46.14-.54c5.76-4.52,12.93-9.35,18.23-14.14l.51-.12c2.77,3.54,5.55,7.08,8.32,10.63l-.2.52Z"/>
  <path class="cls-2" d="M164.54,131.53l.46.63c.48,4.74.73,9.51.29,14.34l-.51,1.1c-2.52-.18-5.45-.83-7.91-1.44l-.48-.28c.05-3.31.02-6.59-.1-9.85l-10.21,6.04h-.96c-3.02-1.22-5.99-2.53-8.87-4.06l18.95-11.03c3.09,1.58,6.27,2.97,9.35,4.56Z"/>
  <path class="cls-4" d="M152.79,57.69c-7.22,2.57-13,6.17-17.51,12.47l-10.55-10.67,15.75-9.18c4.37,1.96,8.59,4.37,12.31,7.38Z"/>
  <path class="cls-4" d="M65.49,116.9c-6.38,3.7-12.78,7.38-19.19,11.03l-.5-.09-1.56-10.02.38-.69c5.27-4.13,11.98-8.55,16.79-12.95l.52.06,3.92,12.23-.37.42Z"/>
  <path class="cls-4" d="M68.13,69.91c-.43-.16-.03-.74.06-1.02,1.13-3.47,2.64-7.02,5.09-9.77.25-.28,1.49-1.65,1.8-1.43l9.34,16.4-18.1,10.69c-.24-3.42.14-6.91.6-10.31,2.38-2.53,4.92-4.92,7.19-7.56l-.35-.35c-1.79,1.26-3.74,2.27-5.64,3.35Z"/>
  <path class="cls-4" d="M129.29,151.19c.47,5.02,1.04,10.04,1.48,15.07l5,1.72c-1.59,1.42-3.68,2.28-5.52,3.35-.61.24-1.11.24-1.72.17-3.96-.39-10.22-3.37-13.84-5.24-.16-.08-.28-.23-.41-.39s-.24-.35-.34-.54c2.94-3.13,5.84-6.41,8.76-9.59.27-.3.6-.49.6-.96,2.01-1.17,3.99-2.42,6-3.6Z"/>
  <path class="cls-2" d="M155.19,173.72c-9.21,6.78-20.32,11.1-31.66,12.7l20.08-15.54,11.58,2.84Z"/>
  <path class="cls-4" d="M67.89,123.14c.58-.13.5.3.68.63.95,1.77,1.68,3.71,2.65,5.45l-.31.4-19.68,11.48-1.79-3.57c5.89-4.58,13.03-9.47,18.47-14.38Z"/>
  <path class="cls-2" d="M130.25,171.32c-3.21,1.88-6.38,3.89-9.59,5.75l-.86.11-11.33-5.55-.04-.56c1.8-1.63,3.81-3.94,5.52-5.75,5.17,2.68,10.5,5.08,16.31,5.99Z"/>
  <path class="cls-2" d="M94.03,148.79c-2.23,1.29-4.49,2.55-6.72,3.84l-8.63-11.03c1.97-1.79,3.69-4.05,5.52-5.99,2.58,4.84,6.51,8.85,9.83,13.19Z"/>
  <path class="cls-2" d="M72.44,112.83c-2.35,1.29-4.63,2.73-6.96,4.08l-4.08-12.71c2.11-1.93,4.45-4.79,6.48-6.95.95,5.32,2.44,10.64,4.56,15.58Z"/>
  <path class="cls-2" d="M99.31,178.04c5.41,1.01,10.85,1.11,16.28,1.19l.27.49c-3.87,2.22-7.73,4.49-11.58,6.77-4.29.47-8.68-1.25-12.89-1.97,2.51-2.25,5.24-4.39,7.91-6.47Z"/>
  <path class="cls-4" d="M174.62,138.24l.24.6-3.77,7.74-.79.53c-1.86.39-3.6.62-5.52.48.05-3.16.38-6.31.25-9.48-.09-2.17-.63-4.41-.49-6.58,3.58,1.84,7.32,3.7,10.07,6.71Z"/>
  <path class="cls-4" d="M120.65,177.08c-1.57.91-3.22,1.73-4.8,2.64l-9.47-.24c-1.89-.28-3.79-.48-5.68-.8-.42-.07-1.58.04-1.4-.64,2.92-2.27,6.39-4.49,9.11-6.95l12.23,5.99Z"/>
  <path class="cls-4" d="M92.11,157.66c.85,1.35,2.74,2.47,3.6,3.71.14.2.33.24.24.6l-16.06,9.26c-.84.24-2.42-1.45-3.36-1.58,4.56-4.33,11.1-7.79,15.59-11.99Z"/>
  <path class="cls-3" d="M360.74.63H15s-1.32-.24-1.32-.24c115.22.91,230.52-1.22,345.74,0,.41,0,1.07-.15,1.32.24Z"/>
  <path class="cls-2" d="M68.37,163.65c-2.25,1.29-4.48,2.64-6.7,3.98-.76.2-6.37-6.24-7.2-7.22,1.85-1.74,4-3.12,5.99-4.68l7.91,7.91Z"/>
  <path class="cls-2" d="M46.3,127.93c-.8.46-6.62,4.16-6.95,3.84-.29-2.67-1.54-5.65-1.66-8.31-.02-.42-.13-.82.2-1.18,2.28-1.66,4.51-3.4,6.73-5.14l1.68,10.79Z"/>
  <path class="cls-4" d="M156.87,146.15c-4-.98-7.95-2.52-11.75-4.08l11.75-6.95v11.03Z"/>
  <path class="cls-4" d="M58.05,83.82c1.07,1.37.1,3.55.63,5.17-.11.7-10.75,6.14-12.02,7.3-.39.05-.4.03-.35-.35.15-1.2.91-2.47.95-3.73,3.49-2.72,7.52-5.5,10.79-8.39Z"/>
  <path class="cls-2" d="M170.3,147.11l4.32-8.87c4.33,4.74.73,7.82-4.32,8.87Z"/>
  <path class="cls-1" d="M58.77,75.43c-1.73,1-3.55,1.88-5.28,2.88l1.1-2.14c1.68-2.46,3.2-5.04,5.26-7.21l-1.08,6.47Z"/>
  <path class="cls-4" d="M81.32,53.37c9.91-3.32,20.54.38,29.02,5.63l-19.07,11.09-9.95-16.72Z"/>
  <path class="cls-4" d="M130.97,46.66l-.31.53-12.76,7.37c-4.32-2.71-8.71-5.3-13.49-7.13l-5.81-1.98c10.73-2.21,21.82-1.57,32.38,1.2Z"/>
</svg>