<?xml version="1.0" encoding="UTF-8"?>
<svg id="Layer_1" xmlns="http://www.w3.org/2000/svg" version="1.1" viewBox="0 0 500 500">
  <!-- Generator: Adobe Illustrator 29.4.0, SVG Export Plug-In . SVG Version: 2.1.0 Build 152)  -->
  <defs>
    <style>
      .st0 {
        fill: #4cb548;
      }

      .st1 {
        fill: #f5851f;
      }

      .st2 {
        fill: #4091cd;
      }

      .st3 {
        display: none;
        fill: #fefefe;
      }

      .st4 {
        fill: #df375c;
      }

      .st5 {
        fill: #e6e6e7;
      }
    </style>
  </defs>
  <path class="st5" d="M277,0c-.56,3.23,1.64,1.71,3.5,1.95,116.7,15.15,200.11,101.28,217.54,216.56.28,1.86-1.26,4.05,1.96,3.49v56c-3.22-.56-1.71,1.63-1.95,3.5-14.48,112.73-103.49,202.62-216.55,216.55-1.87.23-4.06-1.26-3.5,1.95h-56c.56-3.22-1.62-1.68-3.49-1.96C105.05,481.1,16.21,397.03,1.95,281.5c-.23-1.87,1.26-4.06-1.95-3.5v-56c3.23.56,1.68-1.63,1.96-3.49C19.39,103.24,102.8,17.1,219.5,1.95c1.87-.24,4.06,1.27,3.5-1.95h54ZM40.09,250c0,55.67,22.11,109.06,61.48,148.43,39.37,39.37,92.76,61.48,148.43,61.48s109.06-22.12,148.43-61.48,61.48-92.76,61.48-148.43c0-115.93-93.98-209.91-209.91-209.91S40.09,134.07,40.09,250Z"/>
  <path class="st3" d="M223,0c.56,3.23-1.64,1.71-3.5,1.95C102.8,17.1,19.39,103.24,1.96,218.51c-.28,1.86,1.26,4.05-1.96,3.49V0h223Z"/>
  <path class="st3" d="M0,278c3.22-.56,1.72,1.63,1.95,3.5,14.26,115.53,103.1,199.6,216.56,216.54,1.87.28,4.05-1.26,3.49,1.96H0v-222h0Z"/>
  <path class="st0" d="M250,250v209.91c-55.67,0-109.06-22.12-148.43-61.48-39.37-39.37-61.48-92.76-61.48-148.43h209.91,0Z"/>
  <path class="st2" d="M459.91,250c0,55.67-22.11,109.06-61.48,148.43s-92.76,61.48-148.43,61.48v-209.91h209.91Z"/>
  <path class="st1" d="M250,40.09v209.91H40.09c0-115.93,93.98-209.91,209.91-209.91Z"/>
  <path class="st4" d="M459.91,250h-209.91V40.09c115.93,0,209.91,93.98,209.91,209.91Z"/>
</svg>